<svg width="23" height="23" viewBox="0 0 23 23" fill="none" xmlns="http://www.w3.org/2000/svg">
<g>
<path d="M22.4843 18.1768L18.9323 14.6244C18.2249 13.9197 17.0532 13.9411 16.3211 14.6735L14.5316 16.4626C14.4185 16.4003 14.3015 16.3352 14.1785 16.2662C13.0484 15.64 11.5018 14.7818 9.87421 13.1531C8.24183 11.5209 7.38283 9.97186 6.75476 8.84108C6.68849 8.72128 6.62499 8.60578 6.56228 8.49609L7.7633 7.29686L8.35377 6.70566C9.08703 5.9722 9.10725 4.80092 8.40141 4.09422L4.84942 0.541439C4.14358 -0.164267 2.97144 -0.142858 2.23818 0.5906L1.23711 1.59742L1.26446 1.62458C0.92879 2.05289 0.648292 2.54689 0.439554 3.0796C0.247137 3.58668 0.127339 4.07056 0.0725606 4.55544C-0.396456 8.44369 1.38036 11.9973 6.20242 16.8194C12.868 23.4845 18.2395 22.981 18.4713 22.9564C18.976 22.8961 19.4596 22.7755 19.9512 22.5846C20.4793 22.3783 20.9729 22.0982 21.401 21.7632L21.4229 21.7827L22.437 20.7896C23.1688 20.0563 23.1898 18.8846 22.4843 18.1768Z" fill="white"/>
</g>
</svg>
