<svg class="popup__close-svg" width="15" height="15" viewBox="0 0 15 15" fill="none" xmlns="http://www.w3.org/2000/svg"><path d="M14.8206 0.177979C14.5832 -0.0593262 14.1994 -0.0593262 13.9651 0.177979L0.177978 13.9651C-0.0593261 14.2024 -0.0593261 14.5862 0.177978 14.8205C0.295166 14.9377 0.45044 14.9992 0.605713 14.9992C0.760983 14.9992 0.916262 14.9407 1.03345 14.8205L14.8206 1.03345C15.0579 0.796139 15.0579 0.412354 14.8206 0.177979Z"/><path d="M14.8206 13.9651L1.03345 0.177979C0.796141 -0.0593262 0.412353 -0.0593262 0.177978 0.177979C-0.0593261 0.412354 -0.0593261 0.796139 0.177978 1.03345L13.9651 14.8205C14.0823 14.9377 14.2375 14.9992 14.3928 14.9992C14.5481 14.9992 14.7034 14.9407 14.8206 14.8205C15.0579 14.5862 15.0579 14.2024 14.8206 13.9651Z"/></svg>