<svg width="60" height="60" viewBox="0 0 60 60" fill="none" xmlns="http://www.w3.org/2000/svg"><path d="M59.0242 28.5444C58.4004 27.8009 57.5495 27.3178 56.574 27.1372L56.1158 20.9185C56.5678 20.9142 56.9532 20.5886 57.032 20.1425L57.2087 19.1404C57.3981 18.0663 57.1339 17.006 56.4839 16.2315C55.8347 15.4578 54.8842 15.0316 53.8073 15.0316H46.9104L47.2461 13.1279C47.3414 12.5872 47.2034 12.0473 46.8675 11.647C46.5349 11.2507 46.0349 11.0233 45.4956 11.0233H11.5458C10.5418 11.0233 9.61769 11.8044 9.4418 12.8018L6.43816 29.837C6.34816 30.3479 6.6893 30.8351 7.20023 30.9251C7.25531 30.9349 7.31016 30.9396 7.36441 30.9396C7.81172 30.9396 8.20816 30.6188 8.28844 30.1631L11.2922 13.1279C11.312 13.0157 11.4564 12.9021 11.5457 12.9021L45.3779 12.9022L42.3919 29.837C42.3018 30.3479 42.6429 30.8351 43.1539 30.9251C43.6643 31.015 44.1521 30.674 44.2421 30.1631L44.4587 28.9351H55.693C55.6934 28.9351 55.6938 28.9351 55.6943 28.9351C55.6948 28.9351 55.6952 28.9351 55.6956 28.9351C56.4721 28.9352 57.143 29.2252 57.5849 29.7518C57.889 30.1142 58.0664 30.5654 58.1091 31.0645H54.9885C54.5325 31.0645 54.1425 31.3918 54.0633 31.8409L53.71 33.845C53.5676 34.6524 53.7687 35.4525 54.2616 36.0399C54.7477 36.6194 55.4856 36.9516 56.2859 36.9516H57.1704L56.4415 41.0852H53.9612C53.798 40.2584 53.4407 39.498 52.8991 38.8529C51.9383 37.7076 50.5243 37.077 48.918 37.077C46.3424 37.077 43.8574 38.7622 42.6941 41.0853H42.3164L43.5355 34.1714C43.6255 33.6604 43.2845 33.1732 42.7734 33.0832C42.2627 32.9929 41.7752 33.3342 41.6852 33.8452L40.4086 41.0854H23.0177C22.8545 40.2587 22.4972 39.4984 21.9557 38.8531C20.9947 37.7078 19.5809 37.0773 17.9745 37.0773C15.3988 37.0773 12.9138 38.7624 11.7505 41.0855L6.36246 41.0854L6.73793 38.9561H10.9601C11.4789 38.9561 11.8996 38.5355 11.8996 38.0166C11.8996 37.4978 11.479 37.0771 10.9601 37.0771H0.939492C0.420703 37.0771 0 37.4977 0 38.0166C0 38.5354 0.420586 38.9561 0.939492 38.9561H4.83023L4.49449 40.8598C4.39922 41.4005 4.53727 41.9404 4.87313 42.3407C5.2057 42.7371 5.70574 42.9644 6.24504 42.9644H11.1404C10.8858 44.558 11.2685 46.0593 12.2265 47.2009C13.1875 48.3461 14.6013 48.9767 16.2077 48.9767C19.4051 48.9767 22.464 46.3809 23.0266 43.19C23.0399 43.1144 23.0503 43.0393 23.0609 42.9643H42.084C41.8293 44.5578 42.212 46.0591 43.1701 47.2007C44.1311 48.346 45.5449 48.9766 47.1513 48.9766C50.3487 48.9766 53.4076 46.3808 53.9702 43.1899C53.9835 43.1143 53.9939 43.0392 54.0045 42.9642H57.23C57.686 42.9642 58.076 42.6369 58.1552 42.1878L59.9222 32.1671C60.162 30.8069 59.8431 29.5203 59.0242 28.5444ZM44.7902 27.0566L45.8725 20.9189H54.2321L54.6844 27.0566H44.7902ZM55.3583 18.8143L55.3185 19.04H46.2036L46.5791 16.9106H53.8073C54.3191 16.9106 54.7586 17.0983 55.0445 17.4392C55.341 17.7924 55.4525 18.2806 55.3583 18.8143ZM21.1764 42.864C20.7648 45.1987 18.5358 47.098 16.2077 47.098C15.1664 47.098 14.2636 46.7056 13.6658 45.9934C13.0508 45.2603 12.8164 44.265 13.0059 43.1903C13.4176 40.8556 15.6465 38.9564 17.9746 38.9564C19.0159 38.9564 19.9187 39.3487 20.5165 40.0611C21.1315 40.7939 21.3659 41.7894 21.1764 42.864ZM52.1198 42.864C51.7082 45.1987 49.4793 47.098 47.1512 47.098C46.1099 47.098 45.2071 46.7056 44.6093 45.9932C43.9943 45.2602 43.7599 44.2648 43.9494 43.1902C44.361 40.8555 46.59 38.9562 48.918 38.9562C49.9593 38.9562 50.8622 39.3486 51.46 40.061C52.075 40.7939 52.3093 41.7894 52.1198 42.864ZM57.5017 35.0732H56.2859V35.0731C56.0352 35.0731 55.8329 34.9899 55.7009 34.8327C55.5639 34.6693 55.5138 34.4346 55.5602 34.1717L55.7768 32.9439H57.8772L57.5017 35.0732Z" fill="black" /><path d="M18.6398 41.7092C18.3073 41.3129 17.8072 41.0856 17.2678 41.0856C16.2639 41.0856 15.3397 41.8666 15.1638 42.864C15.0686 43.4047 15.2066 43.9446 15.5425 44.3449C15.8751 44.7412 16.3751 44.9686 16.9144 44.9686C17.9183 44.9686 18.8425 44.1874 19.0184 43.1903C19.1138 42.6494 18.9758 42.1097 18.6398 41.7092Z" fill="black" /> <path d="M49.5833 41.7092C49.2506 41.3129 48.7506 41.0856 48.2114 41.0856C47.2075 41.0856 46.2833 41.8666 46.1075 42.8639C46.0123 43.4047 46.1501 43.9445 46.4861 44.3449C46.8186 44.7412 47.3187 44.9686 47.858 44.9686C48.8619 44.9686 49.7861 44.1874 49.962 43.1903C50.0573 42.6494 49.9193 42.1097 49.5833 41.7092Z" fill="black" /><path d="M37.8954 37.0773H25.9911C25.4723 37.0773 25.0516 37.4979 25.0516 38.0168C25.0516 38.5356 25.4722 38.9563 25.9911 38.9563H37.8954C38.4142 38.9563 38.8349 38.5357 38.8349 38.0168C38.8348 37.4979 38.4142 37.0773 37.8954 37.0773Z" fill="black" /><path d="M20.9808 33.0691H3.65038C3.13159 33.0691 2.71089 33.4897 2.71089 34.0086C2.71089 34.5274 3.13136 34.9481 3.65038 34.9481H20.9808C21.4996 34.9481 21.9203 34.5275 21.9203 34.0086C21.9203 33.4897 21.4997 33.0691 20.9808 33.0691Z" fill="#A07052" /><path d="M38.9211 29.2894L35.443 26.2832C35.0504 25.9441 34.4572 25.9871 34.1179 26.3797C33.7785 26.7722 33.8217 27.3655 34.2143 27.7048L35.7832 29.0609H11.9622C11.4434 29.0609 11.0227 29.4815 11.0227 30.0004C11.0227 30.5192 11.4432 30.9399 11.9622 30.9399H35.1874L33.2497 32.2236C32.8171 32.51 32.6988 33.093 32.9854 33.5255C33.1661 33.7985 33.4649 33.9462 33.7693 33.9462C33.9475 33.9462 34.1277 33.8956 34.2873 33.7898L38.8256 30.7836C39.0708 30.6214 39.2256 30.3537 39.2443 30.0603C39.2631 29.7667 39.1436 29.4815 38.9211 29.2894Z" fill="#A07052" /></svg>