<svg width="60" height="60" viewBox="0 0 60 60" fill="none" xmlns="http://www.w3.org/2000/svg">
<path d="M49.5623 14.4375C45.4051 9.21209 39.4621 5.91859 32.8278 5.1636C26.5182 4.44572 20.3012 6.10541 15.2121 9.84618L13.0127 7.08296C12.7982 6.81353 12.4576 6.6772 12.1165 6.72358C11.7753 6.77017 11.4839 6.99302 11.3496 7.31011L5.3512 21.4679C5.21155 21.7975 5.26341 22.1769 5.48627 22.4569C5.70912 22.737 6.06762 22.8725 6.41958 22.8106L21.5636 20.145C21.9028 20.0854 22.1855 19.8514 22.3075 19.5293C22.4295 19.2072 22.3728 18.8447 22.1584 18.5753L19.9878 15.8483C24.9065 12.3654 31.289 11.6773 36.8773 14.0848C37.3725 14.2981 37.947 14.0697 38.1604 13.5745C38.3738 13.0791 38.1453 12.5046 37.65 12.2913C31.0985 9.46864 23.5656 10.471 17.9906 14.9068C17.788 15.068 17.6576 15.3032 17.6283 15.5606C17.599 15.8179 17.6732 16.0764 17.8346 16.2791L19.6074 18.5064L7.85016 20.5759L12.5073 9.58387L14.2804 11.8116C14.6162 12.2334 15.2303 12.3031 15.6523 11.9677C25.5974 4.05675 40.1236 5.71009 48.0341 15.6534C51.7363 20.3056 53.4719 26.076 52.9592 31.9762L49.1053 32.6552C49.8339 27.4291 48.4065 22.1543 45.0946 17.9915C44.7588 17.5692 44.1445 17.4995 43.7225 17.8353C43.3005 18.1711 43.2305 18.7854 43.5664 19.2073C46.8109 23.2855 48.043 28.551 46.9466 33.6537C46.8783 33.9715 46.9725 34.3023 47.198 34.5363C47.3838 34.729 47.6384 34.8353 47.9012 34.8353C47.9575 34.8353 48.0142 34.8304 48.0707 34.8205L54.0248 33.7715C54.4494 33.6966 54.7747 33.3522 54.8251 32.9239C55.6105 26.2542 53.7414 19.6889 49.5623 14.4375Z" fill="black"/>
<path d="M53.5811 37.1901L38.4371 39.853C38.0979 39.9125 37.8153 40.1465 37.6931 40.4684C37.5711 40.7904 37.6276 41.153 37.842 41.4224L40.013 44.1521C37.2738 46.0917 34.1357 47.1257 30.9767 47.2995L29.0236 47.2976C24.2615 47.0263 19.63 44.8096 16.434 40.7934C13.1891 36.7146 11.9571 31.4492 13.0539 26.3472C13.1221 26.0295 13.0279 25.6987 12.8026 25.4646C12.5772 25.2306 12.25 25.1239 11.9301 25.1803L5.97623 26.2266C5.55142 26.3012 5.22583 26.6457 5.17544 27.0741C4.38998 33.7454 6.25905 40.3117 10.4384 45.5635C14.5958 50.7878 20.5388 54.081 27.1727 54.8362C28.1352 54.9458 29.0951 55.0001 30.0496 55C35.3526 54.9999 40.476 53.3246 44.7885 50.1547L46.9879 52.9179C47.2024 53.1874 47.5431 53.3238 47.8841 53.2772C48.2253 53.2306 48.5167 53.0078 48.651 52.6907L54.6493 38.5329C54.789 38.2034 54.7371 37.824 54.5144 37.544C54.2916 37.264 53.9336 37.1283 53.5811 37.1901ZM47.4933 50.4169L45.7201 48.1891C45.3844 47.7673 44.7703 47.6975 44.3482 48.0331C40.1156 51.4 35.0539 53.0341 30.0242 53.0339C23.2377 53.0335 16.5104 50.0575 11.9664 44.3473C8.26425 39.6952 6.52868 33.9233 7.04129 28.0222L10.8951 27.3449C10.1657 32.5708 11.5932 37.8455 14.9059 42.0093C18.7093 46.7889 24.3388 49.2796 30.0199 49.2793C34.2292 49.2792 38.4673 47.9116 42.0097 45.0939C42.4318 44.7583 42.5018 44.144 42.1662 43.722L40.3925 41.4919L52.1505 39.4245L47.4933 50.4169Z" fill="black"/>
<path d="M30.9768 47.2995V34.464C31.9832 34.7133 32.9785 34.8378 33.9463 34.8378C35.7677 34.8378 37.4912 34.3978 39.0036 33.5244C41.6641 31.9883 43.4888 29.2178 44.1416 25.7234C44.23 25.2503 43.9605 24.7833 43.5067 24.6232C40.1529 23.4396 36.8406 23.6339 34.1797 25.1697C32.3594 26.2203 30.9306 27.8493 30.0002 29.8927C29.0699 27.8493 27.641 26.2203 25.8208 25.1697C23.1599 23.6339 19.8475 23.4396 16.4938 24.6232C16.04 24.7833 15.7706 25.2503 15.8588 25.7234C16.5118 29.2178 18.3365 31.9883 20.9969 33.5244C22.5095 34.3978 24.2326 34.8378 26.0542 34.8378C27.0218 34.8378 28.0173 34.7132 29.0237 34.4639V47.2976L30.9768 47.2995ZM35.1561 26.8612C37.1035 25.7373 39.5194 25.5124 42.0344 26.2064C41.377 28.7299 39.9742 30.7091 38.0271 31.8333C36.0795 32.9578 33.6631 33.1833 31.1478 32.4905C31.8052 29.9651 33.2085 27.9853 35.1561 26.8612ZM21.9736 31.8332C20.0266 30.7091 18.6236 28.7298 17.9663 26.2063C20.4813 25.5124 22.8972 25.7373 24.8446 26.8611C26.7923 27.9852 28.1954 29.9651 28.8529 32.4903C26.3375 33.1832 23.9211 32.9577 21.9736 31.8332Z" fill="#A07052"/>
<path d="M41.1066 16.4142C41.3566 16.4142 41.6068 16.3185 41.7977 16.1275C42.1789 15.7462 42.1776 15.1265 41.7963 14.7452C41.415 14.3639 40.7967 14.3639 40.4153 14.7452C40.0341 15.1265 40.0341 15.7448 40.4153 16.1261L40.4181 16.1289C40.6085 16.3193 40.8574 16.4142 41.1066 16.4142V16.4142Z" fill="black"/>
</svg>
