<svg width="67" height="43" viewBox="0 0 67 43" fill="none" xmlns="http://www.w3.org/2000/svg">
<path d="M40.6093 40.675C40.924 40.7125 41.1632 40.75 41.3898 40.75C44.0585 40.75 46.7272 40.7625 49.3833 40.75C50.5288 40.75 50.8561 40.425 50.8687 39.2875C50.8813 37.325 50.8687 35.35 50.8687 33.375C50.8687 33.075 50.8058 32.7125 50.9317 32.475C51.0827 32.1875 51.4226 31.825 51.6618 31.825C51.9135 31.8375 52.3541 32.25 52.3541 32.5C52.3919 35.05 52.4422 37.5875 52.3289 40.1375C52.266 41.4 51.1079 42.225 49.7106 42.2375C47.2433 42.2625 44.7886 42.2625 42.3213 42.2625C29.5316 42.2625 16.7546 42.2625 3.96494 42.25C1.548 42.25 0.679414 41.375 0.679414 39C0.679414 29.975 0.679414 20.9375 0.679414 11.9125C0.679414 11.6125 0.591296 11.25 0.717179 11.0125C0.868237 10.7375 1.20812 10.4375 1.49765 10.4C1.68647 10.375 2.03894 10.75 2.13965 11.0125C2.25294 11.35 2.19 11.75 2.19 12.125C2.19 21.0125 2.19 29.9125 2.19 38.8C2.19 40.55 2.37883 40.75 4.116 40.75C6.60847 40.75 9.11353 40.725 11.606 40.7625C12.3235 40.775 12.5375 40.55 12.5375 39.8375C12.5249 27.5875 12.5124 15.325 12.5375 3.07502C12.5375 2.28752 12.2732 2.10002 11.5305 2.11252C8.9373 2.15002 6.33153 2.12502 3.73836 2.12502C2.52988 2.12502 2.21518 2.43752 2.19 3.62502C2.16483 4.98752 2.19 6.33752 2.17741 7.70002C2.17741 8.23753 2.11447 8.78752 1.39694 8.76252C0.692001 8.73752 0.654237 8.20002 0.654237 7.65002C0.666826 6.26252 0.641649 4.86252 0.654237 3.47502C0.666826 1.61252 1.68647 0.600024 3.59988 0.600024C8.96247 0.587524 14.3376 0.587524 19.7002 0.587524C29.5065 0.587524 39.3253 0.587524 49.1315 0.600024C51.4478 0.600024 52.3541 1.52502 52.3541 3.81252C52.3541 12.1 52.3541 20.375 52.3541 28.6625C52.3541 28.9625 52.4297 29.3125 52.3164 29.5625C52.1905 29.825 51.8506 30.1875 51.6492 30.1625C51.3722 30.125 51.0324 29.8125 50.8939 29.5375C50.7554 29.2625 50.8309 28.875 50.8309 28.5375C50.8309 20.3875 50.8309 12.2375 50.8309 4.10003C50.8309 2.28752 50.6421 2.11252 48.842 2.11252C46.3747 2.11252 43.92 2.12502 41.4527 2.10002C40.7981 2.08752 40.4708 2.22502 40.4708 2.98752C40.496 15.3375 40.4834 27.7 40.4834 40.05C40.5464 40.2375 40.5841 40.4 40.6093 40.675ZM14.0859 40.6875C22.4193 40.6875 30.6772 40.6875 38.9602 40.6875C38.9602 27.8125 38.9602 15.0125 38.9602 2.21252C30.6268 2.21252 22.3815 2.21252 14.0859 2.21252C14.0859 15.05 14.0859 27.8 14.0859 40.6875Z" fill="black"/>
<path d="M28.6631 13.4251C29.1414 13.2501 29.4939 13.1126 29.8464 12.9876C31.0297 12.5626 31.4451 12.9126 31.2311 14.1626C31.08 15.0876 30.9038 16.0251 30.7024 17.0876C30.9541 16.9751 31.08 16.9376 31.1681 16.8626C32.4018 15.8626 32.4899 15.8876 33.22 17.2501C33.3333 17.4626 33.7361 17.6501 33.9879 17.6376C34.5921 17.6001 35.1964 17.4001 35.8006 17.3126C36.7951 17.1751 37.1601 17.6376 36.7951 18.5501C36.5181 19.2376 36.2034 19.9126 35.9013 20.6251C36.1908 20.8001 36.4174 20.9501 36.6566 21.0751C37.8399 21.7251 37.8777 22.2001 36.8202 22.9626C35.574 23.8626 34.3404 24.7626 33.0689 25.6126C32.5025 25.9876 32.3137 26.3376 32.5654 27.0251C32.7794 27.6126 32.7165 28.2876 32.7794 28.9251C32.1626 28.9001 31.5332 28.9376 30.9289 28.8126C29.7708 28.5751 28.6253 28.2376 27.3413 27.9126C27.3413 29.0501 27.3665 30.0501 27.3287 31.0626C27.3161 31.7001 27.5679 32.6501 26.5734 32.6501C25.4908 32.6501 25.7929 31.6626 25.7678 31.0001C25.73 30.0251 25.7552 29.0501 25.7552 27.9001C24.3075 28.2751 22.9732 28.6501 21.6262 28.9376C21.2108 29.0251 20.5562 29.0501 20.3422 28.8126C20.1282 28.5751 20.166 27.8876 20.3422 27.5376C20.8961 26.4626 20.5814 25.8376 19.5869 25.2501C18.4792 24.6001 17.4595 23.7751 16.4021 23.0251C15.1685 22.1501 15.2062 21.7001 16.5783 20.9751C16.7546 20.8751 16.9308 20.7751 17.2204 20.6126C16.9056 19.9001 16.5784 19.2001 16.2888 18.4876C15.9489 17.6251 16.3014 17.1626 17.2204 17.2626C17.5602 17.3001 17.9001 17.3751 18.2274 17.4501C19.0708 17.6501 19.8765 17.9126 20.1534 16.6376C20.2667 16.0876 20.8206 16.0126 21.3241 16.3376C21.6262 16.5376 21.9032 16.7751 22.4067 17.1751C22.2053 16.0501 22.0039 15.1626 21.9032 14.2876C21.8528 13.8501 21.8402 13.2251 22.092 13.0001C22.3312 12.7876 22.948 12.9501 23.3886 13.0251C23.7159 13.0751 24.0306 13.2376 24.446 13.3876C24.8236 12.6376 25.1384 11.8876 25.5538 11.2001C25.7929 10.8001 26.1958 10.4876 26.5231 10.1376C26.8755 10.5001 27.3035 10.8251 27.5679 11.2376C27.9707 11.9376 28.2728 12.6626 28.6631 13.4251ZM31.9108 18.2876C31.2185 18.9001 30.6898 19.4251 30.0855 19.8626C29.8338 20.0501 29.368 20.1376 29.0911 20.0376C28.8897 19.9626 28.7889 19.5001 28.7638 19.1876C28.7386 18.9001 28.8519 18.5876 28.9022 18.2876C29.1037 17.1751 29.3177 16.0501 29.5317 14.8876C27.8322 15.2126 27.8322 15.2126 27.1021 13.7501C26.9511 13.4501 26.7748 13.1501 26.5734 12.8001C25.7174 13.8501 25.8055 15.8876 23.5522 14.8126C23.8292 16.2626 24.0935 17.5251 24.2698 18.7876C24.3201 19.2001 24.1061 19.6501 24.0054 20.0751C23.59 19.9376 23.1116 19.8876 22.7592 19.6501C22.2305 19.3001 21.7899 18.8251 21.45 18.5126C20.8961 18.8501 20.4933 19.2626 20.0401 19.3376C19.5114 19.4251 18.9449 19.2126 18.3407 19.1251C18.9575 21.2876 18.9575 21.2876 17.9001 22.2751C19.2093 23.2126 20.5059 24.1501 21.8151 25.0501C22.3815 25.4376 22.5829 25.8626 22.2934 26.5126C22.2053 26.7001 22.2053 26.9376 22.1172 27.4126C25.088 26.0751 27.9455 26.1251 30.9541 27.2501C29.9848 25.6126 31.1555 25.1001 32.0745 24.4501C33.1193 23.7126 34.1641 22.9626 35.3726 22.1001C33.0564 21.4126 34.6551 20.2126 34.6928 19.1751C33.7865 18.9501 32.4521 20.1501 31.9108 18.2876Z" fill="#A07052"/>
<path d="M65.1941 22.4H32.15V42.2625H65.1941V22.4Z" fill="white"/>
<path d="M64.9801 21.55H32.1248C31.8353 21.55 31.6339 21.775 31.6087 22.0625V41.7875C31.6087 42.075 31.8353 42.275 32.1248 42.3H51.5862C51.5737 42.35 52.0268 41.325 51.9765 41.25C51.9765 41.2625 51.9639 41.2625 51.9639 41.275H32.6284V22.5375H64.4892V41.2625H63.0667C63.0289 41.175 63.4444 42.3125 63.4444 42.2875H64.9927C65.2822 42.2875 65.5088 42.0625 65.5088 41.775V22.05C65.4837 21.775 65.2571 21.55 64.9801 21.55Z" fill="black"/>
<path d="M63.2933 26.625C61.6694 26.625 60.3728 25.325 60.3476 23.7C60.3476 23.4125 60.1211 23.1875 59.8315 23.1875H37.2608C36.9713 23.1875 36.7699 23.4125 36.7447 23.7C36.7447 25.3125 35.4355 26.6 33.7991 26.625C33.5095 26.625 33.3081 26.85 33.2829 27.1125V36.6125C33.2829 36.9 33.5095 37.1 33.7991 37.125C35.4229 37.125 36.7195 38.425 36.7447 40.05C36.7447 40.3375 36.9713 40.5375 37.2608 40.5625H52.2282C52.2408 40.5625 52.266 40.5625 52.2786 40.5625H52.3667C52.3667 40.5625 52.8073 40.575 52.9583 40.5875C53.0213 40.6 53.2731 39.55 53.2605 39.5625H37.714C37.4874 37.8 36.0901 36.4125 34.3152 36.1875V27.6125C36.0901 27.3875 37.4874 26 37.714 24.2375H59.3406C59.5672 26 60.9645 27.3875 62.7394 27.6125V36.1875C62.7772 37.475 63.7968 36.925 63.7968 36.6375V27.1375C63.8094 26.85 63.5702 26.625 63.2933 26.625Z" fill="black"/>
<path d="M43.6556 25.4375C43.6556 25.15 43.4291 24.95 43.1395 24.925H41.0247C40.7352 24.925 40.5086 25.15 40.5086 25.4375C40.5086 25.725 40.7352 25.95 41.0247 25.95H43.1395C43.4291 25.9375 43.6556 25.7125 43.6556 25.4375Z" fill="black"/>
<path d="M56.2313 38.2875C56.2313 38 56.0047 37.8 55.7152 37.775H53.6004C53.3108 37.775 53.0842 38 53.0842 38.2875C53.0842 38.575 53.3108 38.8 53.6004 38.8H55.7152C56.0047 38.8 56.2313 38.575 56.2313 38.2875Z" fill="black"/>
<path d="M48.5399 26.4C45.4809 26.4 43.001 28.8625 43.001 31.9C43.001 34.9375 45.4809 37.4 48.5399 37.4C51.5988 37.4 54.0787 34.9375 54.0787 31.9C54.0913 28.8625 51.5988 26.4 48.5399 26.4ZM48.5399 36.4125C46.0222 36.4125 43.9955 34.4 43.9955 31.9C43.9955 29.4 46.0222 27.3875 48.5399 27.3875C51.0575 27.3875 53.0842 29.4 53.0842 31.9C53.0842 34.4 51.0575 36.4125 48.5399 36.4125Z" fill="#A07052"/>
<path d="M60.0581 30.5375C59.3154 30.5375 58.686 31.1375 58.686 31.9C58.686 32.6375 59.2902 33.2625 60.0581 33.2625C60.8008 33.2625 61.4051 32.6625 61.4302 31.925C61.4051 31.1625 60.8008 30.5375 60.0581 30.5375ZM60.0581 32.2375C59.8567 32.2375 59.6805 32.0625 59.6805 31.8625C59.6805 31.6625 59.8567 31.4875 60.0581 31.4875C60.2595 31.4875 60.4358 31.6625 60.4358 31.8625C60.398 32.1 60.2344 32.2375 60.0581 32.2375Z" fill="black"/>
<path d="M37.0594 30.5375C36.3167 30.5375 35.6873 31.1375 35.7125 31.9C35.7125 32.6375 36.3167 33.2625 37.0846 33.2625C37.8273 33.2625 38.4315 32.6625 38.4315 31.925C38.4064 31.1625 37.8021 30.5375 37.0594 30.5375ZM37.0594 32.2375C36.858 32.2375 36.7195 32.0625 36.7195 31.8625C36.7195 31.6625 36.8958 31.525 37.0972 31.525C37.2986 31.525 37.4371 31.7 37.4371 31.9C37.3993 32.1 37.2231 32.2375 37.0594 32.2375Z" fill="black"/>
<path d="M48.8294 31.3V30.025C49.2071 30.1125 49.5092 30.275 49.7987 30.5375L50.2519 29.9125C49.8491 29.5375 49.3329 29.35 48.8294 29.2875V28.8625H48.2V29.2875C47.344 29.4 46.8027 29.9625 46.8027 30.675C46.8027 31.475 47.3692 31.7875 48.2 32.0125V33.35C47.7972 33.2375 47.3944 33.0125 47.1174 32.725L46.6265 33.325C47.0545 33.725 47.6209 33.975 48.2252 34.0625V34.5125H48.8294V34.0875C49.8239 34.025 50.4029 33.4375 50.4029 32.675C50.4029 31.8125 49.7735 31.5 48.8294 31.3ZM48.2 31.1375C47.8224 31 47.6587 30.85 47.6587 30.6C47.6839 30.2875 47.9105 30.0625 48.2 30V31.1375ZM48.8294 33.35V32.125C49.3204 32.2625 49.5469 32.4125 49.5469 32.725C49.5469 33.0375 49.2826 33.2875 48.8294 33.35Z" fill="#A07052"/>
<path d="M51.9639 41.2375H63.0919L63.4318 42.2875H51.5736" fill="black"/>
<path d="M33.7991 37.1376C35.4229 37.1376 36.7195 38.4376 36.7447 40.0626C36.7447 40.3501 36.9713 40.5751 37.2608 40.5751H59.8315C60.1211 40.5751 60.3225 40.3501 60.3476 40.0626C60.3476 38.4501 61.6568 37.1626 63.2933 37.1376C63.5828 37.1376 63.7842 36.9126 63.8094 36.6501V27.1501C63.8094 26.8626 63.5828 26.6626 63.2933 26.6376C61.6694 26.6376 60.3728 25.3376 60.3476 23.7125C60.3476 23.425 60.1211 23.2251 59.8315 23.2001H44.8641C44.8515 23.2001 44.8264 23.2001 44.8138 23.2001H44.7256C44.7256 23.2001 44.2851 23.1875 44.134 23.175C44.0711 23.1625 43.8193 24.2126 43.8319 24.2001H59.3784C59.6049 25.9626 61.0022 27.3501 62.7772 27.5751V36.1501C61.0022 36.3751 59.6049 37.7626 59.3784 39.5251H37.7392C37.5126 37.7626 36.1153 36.3751 34.3404 36.1501V27.5751C34.3026 26.2876 33.2829 26.8376 33.2829 27.1251V36.6251C33.2829 36.9126 33.5095 37.1376 33.7991 37.1376Z" fill="black"/>
<path d="M60.1085 19.925L62.7268 17.45C62.8024 17.375 62.8401 17.2875 62.8527 17.175C62.8527 17.075 62.8149 16.975 62.752 16.9L62.5254 16.6625C62.4499 16.5875 62.3618 16.55 62.2485 16.5375C62.1478 16.5375 62.0471 16.575 61.9715 16.6375L60.4358 18.0875L60.5491 13.375C60.5491 13.1625 60.3854 12.9875 60.1714 12.9875L59.8441 12.975C59.6301 12.975 59.4413 13.1375 59.4413 13.35L59.328 18.075L57.8552 16.5375C57.7796 16.4625 57.6915 16.425 57.5908 16.4125C57.4901 16.4125 57.3894 16.45 57.3139 16.5125L57.0747 16.7375C56.9992 16.8125 56.9614 16.9 56.9614 17.0125C56.9614 17.1125 56.9992 17.2125 57.0621 17.2875L59.5672 19.8875C59.6427 19.9625 59.7308 20 59.8441 20.0125C59.9322 20.0375 60.0329 20 60.1085 19.925Z" fill="#A07052"/>
<path d="M55.1739 17.6625L56.7348 16.1875C56.7852 16.15 56.8104 16.0875 56.8104 16.025C56.8104 15.9625 56.7852 15.9 56.7474 15.8625L56.6089 15.725C56.5712 15.675 56.5082 15.65 56.4453 15.65C56.3824 15.65 56.3194 15.675 56.2816 15.7125L55.3753 16.575L55.4382 13.775C55.4382 13.65 55.3501 13.55 55.2117 13.55H55.0102C54.8844 13.55 54.7711 13.65 54.7711 13.775L54.7081 16.575L53.8395 15.6625C53.8018 15.6125 53.7388 15.5875 53.6759 15.5875C53.6129 15.5875 53.5626 15.6125 53.5122 15.65L53.3738 15.7875C53.3234 15.825 53.2982 15.8875 53.2982 15.95C53.2982 16.0125 53.3234 16.075 53.3612 16.1125L54.8466 17.6625C54.8844 17.7125 54.9473 17.7375 55.0102 17.7375C55.0732 17.725 55.1235 17.7125 55.1739 17.6625Z" fill="#A07052"/>
<path d="M64.4514 17.6625L66.0124 16.1875C66.0627 16.15 66.0879 16.0875 66.0879 16.025C66.0879 15.9625 66.0627 15.9 66.0249 15.8625L65.8865 15.725C65.8487 15.675 65.7858 15.65 65.7228 15.65C65.6599 15.65 65.5969 15.675 65.5592 15.7125L64.6528 16.575L64.7158 13.775C64.7158 13.65 64.6277 13.55 64.4892 13.55H64.2878C64.1619 13.55 64.0486 13.65 64.0486 13.775L63.9857 16.575L63.1171 15.6625C63.0793 15.6125 63.0164 15.5875 62.9534 15.5875C62.8905 15.5875 62.8401 15.6125 62.7898 15.65L62.6513 15.7875C62.6009 15.825 62.5758 15.8875 62.5758 15.95C62.5758 16.0125 62.6009 16.075 62.6387 16.1125L64.1241 17.6625C64.1619 17.7125 64.2248 17.7375 64.2878 17.7375C64.3507 17.725 64.4136 17.7125 64.4514 17.6625Z" fill="#A07052"/>
</svg>
