<svg class="advantage__svg" width="60px" height="60px" viewBox="0 0 60 60" fill="none" xmlns="http://www.w3.org/2000/svg">
	<g>
		<path
			d="M37.659 7.47609C31.0592 4.14116 23.1091 5.41628 17.8765 10.6489C11.7951 16.7303 11.1864 26.4271 16.4608 33.2045C16.6472 33.4441 16.9259 33.5695 17.2076 33.5695C17.4106 33.5695 17.6151 33.5044 17.7877 33.37C18.1999 33.0493 18.2739 32.4552 17.9533 32.0431C13.2636 26.0171 13.8056 17.3944 19.2139 11.9861C23.8674 7.3323 30.9371 6.19815 36.8064 9.16382C37.2723 9.3996 37.8411 9.21234 38.0767 8.74628C38.3121 8.28023 38.1253 7.71152 37.659 7.47609Z"
			fill="black" />
		<path
			d="M45.2095 15.0281C44.974 14.562 44.4055 14.375 43.9391 14.6103C43.473 14.8457 43.2859 15.4143 43.5213 15.8806C46.4849 21.7489 45.3501 28.8176 40.6977 33.47C35.2892 38.8782 26.6667 39.4201 20.6406 34.7306C20.2284 34.41 19.6345 34.484 19.3137 34.896C18.993 35.3082 19.0672 35.9022 19.4793 36.223C22.5665 38.6255 26.2592 39.8073 29.9402 39.8073C34.3402 39.8073 38.7236 38.1185 42.035 34.8071C47.2664 29.5758 48.5421 21.6272 45.2095 15.0281Z"
			fill="black" />
		<path
			d="M42.7665 11.4268C42.5322 11.1617 42.2861 10.8999 42.035 10.6489C41.7838 10.3977 41.5222 10.1516 41.2571 9.91738C40.8658 9.57144 40.2681 9.60847 39.9226 9.99976C39.5765 10.3909 39.6133 10.9885 40.0046 11.3343C40.2407 11.5429 40.4739 11.7623 40.6977 11.986C40.9213 12.2098 41.1407 12.4429 41.3494 12.679C41.5362 12.8904 41.7966 12.9984 42.0583 12.9984C42.2808 12.9984 42.5042 12.9202 42.6841 12.7613C43.0755 12.4156 43.1123 11.818 42.7665 11.4268Z"
			fill="#B7875F" />
		<path
			d="M52.2735 24.4231C52.9039 23.3887 52.9039 22.1038 52.2732 21.0697L51.0293 19.0298C50.8654 18.7609 50.802 18.4417 50.851 18.1309L51.2218 15.7751C51.4108 14.5745 50.9176 13.3847 49.9348 12.6698L48.007 11.2675C47.7521 11.082 47.5709 10.8114 47.4968 10.5051L46.9353 8.18487C46.6503 7.00632 45.7411 6.09718 44.5626 5.81194L42.2423 5.25038C41.936 5.1762 41.6651 4.99502 41.4799 4.74014L40.0774 2.81182C39.3625 1.82908 38.1726 1.3356 36.9724 1.52474L34.6157 1.89553C34.3049 1.94439 33.9856 1.88111 33.717 1.71728L31.6768 0.472984C30.6425 -0.15772 29.3576 -0.157603 28.3233 0.472984L26.2833 1.71693C26.0147 1.88088 25.6956 1.94392 25.3845 1.89517L23.0286 1.52439C21.8283 1.33549 20.6383 1.82873 19.9234 2.81147L18.5212 4.73932C18.3357 4.9942 18.0649 5.17538 17.7585 5.24956L15.4383 5.811C14.26 6.096 13.3506 7.00526 13.0654 8.1837L12.5038 10.504C12.4296 10.8103 12.2486 11.0812 11.9936 11.2664L10.0652 12.6689C9.08251 13.3837 8.58938 14.5734 8.77817 15.774L9.14896 18.1307C9.19782 18.4416 9.13454 18.7608 8.97071 19.0294L7.72653 21.0698C7.09606 22.1041 7.09606 23.3889 7.72665 24.4231L8.9706 26.4631C9.13442 26.7319 9.19782 27.0512 9.14884 27.3619L8.77806 29.7179C8.58903 30.9184 9.08228 32.1083 10.065 32.8231L11.9929 34.2254C12.2477 34.4107 12.4289 34.6815 12.5031 34.9878L13.0645 37.308C13.3495 38.4866 14.2588 39.3957 15.4372 39.681L16.4062 39.9154L9.84903 54.5421C9.7097 54.853 9.74825 55.2147 9.95017 55.4891C10.152 55.7636 10.4856 55.9083 10.824 55.8677L16.1001 55.2369L19.1394 59.5952C19.3173 59.8501 19.6076 59.9999 19.9148 59.9999C19.9442 59.9999 19.9739 59.9985 20.0035 59.9958C20.3426 59.9639 20.6385 59.7519 20.7778 59.4413L27.4745 44.5023L28.3231 45.0197C28.8402 45.335 29.42 45.4926 29.9998 45.4926C30.5797 45.4926 31.1594 45.3349 31.6765 45.0197L32.5557 44.4837L39.2608 59.4413C39.4001 59.7522 39.6959 59.9639 40.0352 59.9958C40.0648 59.9986 40.0945 60 40.1239 60C40.431 60 40.7214 59.8502 40.8992 59.5954L43.9386 55.237L49.2146 55.8679C49.5528 55.9081 49.8867 55.7637 50.0885 55.4892C50.2903 55.2148 50.3291 54.8531 50.1896 54.5422L43.6291 39.9075L44.5616 39.6819C45.7399 39.3969 46.6493 38.4876 46.9345 37.3092L47.4961 34.9889C47.5702 34.6825 47.7514 34.4117 48.0063 34.2264L49.9346 32.8239C50.9174 32.1092 51.4105 30.9195 51.2217 29.7189L50.8509 27.3622C50.802 27.0513 50.8653 26.7321 51.0292 26.4635L52.2735 24.4231ZM19.7353 57.1439L17.3267 53.6899C17.127 53.4035 16.7855 53.2502 16.4389 53.292L12.2577 53.7919L18.2318 40.4649C18.341 40.5452 18.439 40.6414 18.5198 40.7526L19.9223 42.681C20.0555 42.8641 20.2053 43.0302 20.3685 43.1781L17.224 50.1926C17.0105 50.6692 17.2235 51.2285 17.7 51.4421C17.8257 51.4985 17.957 51.5251 18.0862 51.5251C18.4473 51.5251 18.7923 51.317 18.9495 50.9661L22.0828 43.9766C22.3912 44.0189 22.7086 44.0182 23.0273 43.968L25.3839 43.5972C25.525 43.5751 25.6676 43.5771 25.8065 43.6001L19.7353 57.1439ZM47.7812 53.7916L43.5999 53.292C43.2529 53.2504 42.9118 53.4035 42.7121 53.6899L40.3034 57.1439L34.2297 43.5948C34.3571 43.5774 34.487 43.5774 34.6156 43.5976L36.9714 43.9684C37.303 44.0205 37.6333 44.0189 37.9533 43.9712L41.0891 50.9664C41.2464 51.3173 41.5912 51.5254 41.9524 51.5254C42.0816 51.5254 42.213 51.4987 42.3385 51.4424C42.815 51.2289 43.0282 50.6693 42.8145 50.1928L39.6581 43.1516C39.8103 43.0103 39.951 42.8538 40.0765 42.6813L41.4788 40.7535C41.5672 40.6319 41.6755 40.5278 41.7971 40.4435L47.7812 53.7916ZM50.6587 23.4385L49.4145 25.4789C49.0179 26.1297 48.8643 26.9029 48.9828 27.656L49.3536 30.0126C49.4315 30.5082 49.2279 30.9993 48.8223 31.2944L46.8938 32.697C46.2766 33.1461 45.8376 33.802 45.6581 34.5439L45.0965 36.8642C44.9787 37.3507 44.6035 37.726 44.117 37.8438L41.7966 38.4052C41.0546 38.5848 40.3986 39.0238 39.9495 39.6411L38.5473 41.569C38.2522 41.9748 37.7612 42.1782 37.2653 42.1002L34.9094 41.7294C34.1562 41.6109 33.3829 41.7642 32.7319 42.1611L30.692 43.4051C30.2651 43.6652 29.7345 43.6652 29.3078 43.4051L27.2675 42.161C26.76 41.8515 26.1783 41.6903 25.5897 41.6903C25.4233 41.6903 25.2561 41.7031 25.0902 41.7293L22.7335 42.1001C22.2378 42.1781 21.7468 41.9743 21.4517 41.5687L20.0491 39.6404C19.6 39.0232 18.9441 38.5842 18.2022 38.4047L15.8819 37.8431C15.3954 37.7253 15.0201 37.3501 14.9023 36.8635L14.3408 34.5433C14.1613 33.8013 13.7224 33.1452 13.105 32.6961L11.1772 31.2937C10.7715 30.9986 10.568 30.5074 10.646 30.0118L11.0168 27.6558C11.1353 26.9027 10.982 26.1295 10.5851 25.4785L9.34114 23.4384C9.08087 23.0115 9.08087 22.481 9.34114 22.0542L10.5853 20.0138C10.9821 19.3629 11.1355 18.5897 11.017 17.8367L10.6463 15.48C10.5683 14.9845 10.772 14.4933 11.1776 14.1982L13.106 12.7956C13.7233 12.3466 14.1622 11.6907 14.3418 10.9487L14.9033 8.62843C15.0211 8.14198 15.3963 7.76663 15.8829 7.64886L18.2032 7.08741C18.9453 6.90788 19.6013 6.46889 20.0502 5.85155L21.4525 3.92369C21.7476 3.51799 22.2386 3.3142 22.7344 3.39237L25.0904 3.76315C25.8436 3.88186 26.617 3.72834 27.2678 3.33143L29.3077 2.08748C29.7346 1.82732 30.2652 1.82732 30.6919 2.08748L32.7323 3.33154C33.3831 3.72858 34.1566 3.88198 34.9095 3.76338L37.2663 3.3926C37.7617 3.3149 38.253 3.51834 38.5481 3.92393L39.9507 5.85225C40.3998 6.46948 41.0557 6.90847 41.7976 7.088L44.1179 7.64956C44.6043 7.76733 44.9797 8.14257 45.0975 8.62913L45.6589 10.9493C45.8384 11.6914 46.2773 12.3475 46.8948 12.7966L48.8226 14.1988C49.2283 14.4939 49.4319 14.9852 49.3538 15.4807L48.9831 17.8367C48.8646 18.5899 49.0179 19.3631 49.4148 20.014L50.6587 22.0542C50.9191 22.4811 50.9191 23.0116 50.6587 23.4385Z"
			fill="black" />
		<path
			d="M41.0645 19.8044C40.8561 19.1629 40.3106 18.715 39.6408 18.6356L33.9512 17.9609L31.5514 12.7584C31.2689 12.146 30.6744 11.7654 29.9999 11.7654C29.3254 11.7654 28.7308 12.146 28.4483 12.7584L26.0485 17.961L20.3589 18.6357C19.6891 18.7151 19.1435 19.163 18.9352 19.8045C18.7269 20.4456 18.905 21.1287 19.4 21.5866L23.6064 25.4766L22.4899 31.0962C22.3585 31.7579 22.6158 32.4151 23.1616 32.8114C23.4626 33.0301 23.812 33.1408 24.1635 33.1408C24.4494 33.1408 24.7365 33.0677 25.0003 32.92L29.9997 30.1217L34.9992 32.92C35.5878 33.2496 36.2923 33.208 36.838 32.8115C37.3837 32.4151 37.6411 31.7578 37.5096 31.0962L36.393 25.4767L40.5995 21.5867C41.0947 21.1289 41.2729 20.4459 41.0645 19.8044ZM34.7206 24.4477C34.4792 24.671 34.3712 25.0037 34.4352 25.3262L35.5778 31.0767L30.4616 28.213C30.3181 28.1327 30.159 28.0925 29.9997 28.0925C29.8405 28.0925 29.6815 28.1326 29.5379 28.213L24.4217 31.0767L25.5643 25.3262C25.6285 25.0035 25.5203 24.671 25.2788 24.4477L20.9743 20.4669L26.7969 19.7765C27.1234 19.7378 27.4064 19.5322 27.5442 19.2337L29.9999 13.9097L32.4555 19.2337C32.5933 19.5322 32.8762 19.7378 33.2028 19.7765L39.0252 20.4669L34.7206 24.4477Z"
			fill="#A07052" />
	</g>
</svg>