<svg width="60" height="60" viewBox="0 0 60 60" fill="none" xmlns="http://www.w3.org/2000/svg">
<path d="M44.7499 43.0796C44.3066 42.7722 43.6981 42.8828 43.391 43.3261C43.0934 43.7557 42.756 44.1735 42.388 44.568C42.1414 44.8325 41.8021 45.1515 41.433 45.4655C41.0223 45.8151 40.9727 46.4314 41.3222 46.8422C41.5154 47.0692 41.79 47.1858 42.0664 47.1858C42.2901 47.1858 42.515 47.1093 42.699 46.9529C43.1296 46.5863 43.5162 46.2222 43.8164 45.8999C44.2482 45.4371 44.6453 44.9455 44.9965 44.4385C45.3036 43.9952 45.1933 43.3868 44.7499 43.0796Z" fill="black"/>
<path d="M40.4955 47.4585C40.2664 46.9703 39.6851 46.7601 39.1966 46.9891L39.1661 47.0029C38.6726 47.2205 38.4492 47.7971 38.6671 48.2905C38.8282 48.6558 39.1858 48.873 39.5609 48.873C39.6926 48.873 39.8266 48.8462 39.9546 48.7897C39.9785 48.7792 40.0021 48.7685 40.0258 48.7575C40.5141 48.5284 40.7244 47.947 40.4955 47.4585Z" fill="black"/>
<path d="M52.0825 8H7.91747C6.30869 8 5 9.30888 5 10.9175V38.2858C5 39.8942 6.30869 41.2031 7.91747 41.2031H28.4825C29.3543 44.8916 31.3257 47.5038 33.0486 49.1775C35.5634 51.6207 38.4462 52.9217 39.5604 52.9217C40.6744 52.9217 43.5572 51.6207 46.0722 49.1776C47.7952 47.5038 49.7666 44.8916 50.6382 41.2032H52.0825C53.6912 41.2032 55 39.8944 55 38.2859V10.9175C55 9.30888 53.6912 8 52.0825 8ZM49.1406 37.2009C49.1407 42.3462 46.7656 45.7592 44.773 47.7163C42.4094 50.0379 39.9849 50.9409 39.5604 50.9684C39.1357 50.9409 36.7112 50.038 34.3476 47.7163C32.3552 45.7592 29.9802 42.3462 29.9802 37.2009V32.3917C33.3424 31.4194 36.4885 30.0887 39.5607 28.3398C42.5636 30.0442 45.8507 31.4342 49.1406 32.3912V37.2009ZM53.0469 38.2858C53.0469 38.8174 52.6142 39.2499 52.0825 39.2499H50.9779C51.0527 38.5956 51.0937 37.9132 51.0937 37.2009V31.6513C51.0937 31.2105 50.7984 30.8245 50.3732 30.7089C46.827 29.746 43.2585 28.2454 40.0537 26.3695C39.7489 26.1912 39.3718 26.1914 39.0669 26.3697C35.7712 28.2988 32.3958 29.718 28.7476 30.7089C28.3223 30.8246 28.027 31.2106 28.027 31.6513V37.2009C28.027 37.9132 28.0679 38.5956 28.1428 39.2499H7.91747C7.38574 39.2499 6.95312 38.8173 6.95312 38.2858V21.6716H53.0469V38.2858ZM53.0469 19.7187H6.95312V15.8126H53.0469V19.7187ZM53.0469 13.8594H6.95312V10.9175C6.95312 10.3857 7.38574 9.95312 7.91747 9.95312H52.0825C52.6142 9.95312 53.0469 10.3857 53.0469 10.9175V13.8594Z" fill="black"/>
<path d="M16.7184 28.5079C16.1297 28.5079 15.5484 28.627 15.0103 28.8539C14.4846 28.6312 13.9069 28.5079 13.301 28.5079C10.8779 28.5079 8.90637 30.4793 8.90637 32.9023C8.90637 35.3254 10.8778 37.2969 13.301 37.2969C13.9069 37.2969 14.4846 37.1736 15.0102 36.9509C15.5484 37.1778 16.1297 37.2969 16.7184 37.2969C19.1417 37.2969 21.1132 35.3254 21.1132 32.9023C21.1132 30.4793 19.1417 28.5079 16.7184 28.5079ZM13.301 35.3437C11.9547 35.3437 10.8595 34.2486 10.8595 32.9023C10.8595 31.5561 11.9547 30.4611 13.301 30.4611C14.6471 30.4611 15.7423 31.5561 15.7423 32.9023C15.7423 34.2485 14.6471 35.3437 13.301 35.3437ZM16.9605 35.3318C17.4244 34.6354 17.6954 33.7999 17.6954 32.9024C17.6954 32.0049 17.4244 31.1696 16.9607 30.4732C18.1935 30.5951 19.1599 31.638 19.1599 32.9024C19.1599 34.1668 18.1935 35.2099 16.9605 35.3318Z" fill="black"/>
<path d="M14.9058 24.1131H9.88269C9.34333 24.1131 8.90613 24.5503 8.90613 25.0897C8.90613 25.6289 9.34333 26.0663 9.88269 26.0663H14.9058C15.4452 26.0663 15.8824 25.6288 15.8824 25.0897C15.8824 24.5503 15.4452 24.1131 14.9058 24.1131Z" fill="#A07052"/>
<path d="M17.7926 24.1131H17.7463C17.2069 24.1131 16.7698 24.5503 16.7698 25.0897C16.7698 25.6289 17.2069 26.0663 17.7463 26.0663H17.7926C18.3319 26.0663 18.7691 25.6288 18.7691 25.0897C18.7691 24.5503 18.3319 24.1131 17.7926 24.1131Z" fill="#A07052"/>
<path d="M44.9208 34.9554C44.5397 34.5743 43.9214 34.5741 43.5398 34.9554L38.3175 40.1773L35.5808 37.4404C35.1994 37.0594 34.5811 37.0592 34.1998 37.4404C33.8184 37.8219 33.8183 38.4403 34.1998 38.8216L37.627 42.2489C37.8177 42.4397 38.0676 42.5351 38.3175 42.5351C38.5674 42.5351 38.8174 42.4397 39.0079 42.2489L44.9207 36.3366C45.3022 35.9554 45.3022 35.3369 44.9208 34.9554Z" fill="#A07052"/>
</svg>
