<svg width="59" height="60" viewBox="0 0 59 60" fill="none" xmlns="http://www.w3.org/2000/svg">
	<g>
		<path
			d="M43.6901 0.9375L43.6901 59.0625C43.6901 59.5809 43.2788 60 42.7699 60C42.2611 60 41.8498 59.5809 41.8498 59.0625L41.8498 0.9375C41.8498 0.419064 42.2611 -1.79786e-08 42.7699 -4.02206e-08C43.2788 -6.24625e-08 43.6901 0.419063 43.6901 0.9375Z"
			fill="#A07052" />
		<path
			d="M40.0426 13.1288L40.0426 57.1885C40.0426 57.7069 39.6313 58.126 39.1225 58.126L29.0065 58.126C28.4977 58.126 28.0864 57.7069 28.0864 57.1885L28.0864 13.1288C28.0864 12.6104 28.4977 12.1913 29.0065 12.1913L39.1216 12.1913C39.6304 12.1913 40.0426 12.6104 40.0426 13.1288ZM38.2024 56.251L38.2024 14.0663L29.9285 14.0663L29.9285 56.251L38.2024 56.251Z"
			fill="black" />
		<path
			d="M29.9266 13.1287L29.9266 57.1884C29.9266 57.5672 29.703 57.9103 29.3589 58.0547C29.0148 58.2 28.6191 58.1194 28.3559 57.8512L18.228 47.535C18.055 47.3587 17.9584 47.1215 17.9584 46.8722L17.9584 2.81248C17.9584 2.43373 18.182 2.09061 18.5261 1.94623C18.8702 1.80092 19.2659 1.88155 19.529 2.14967L29.657 12.4659C29.83 12.6412 29.9266 12.8794 29.9266 13.1287ZM28.0863 54.9253L28.0863 13.5169L19.7977 5.07561L19.7977 46.484L28.0863 54.9253Z"
			fill="black" />
		<path
			d="M40.0426 13.1287C40.0426 13.3687 39.9524 13.6087 39.773 13.7915C39.4132 14.1581 38.8317 14.1581 38.4719 13.7915L28.3467 3.47436C27.987 3.10686 27.987 2.51623 28.3467 2.14873C28.7065 1.78123 29.288 1.78123 29.6478 2.14873L39.773 12.4659C39.9524 12.6487 40.0426 12.8887 40.0426 13.1287Z"
			fill="black" />
		<path
			d="M29.9174 2.81158C29.9174 3.33002 29.5061 3.74908 28.9973 3.74908L18.8794 3.74908C18.3706 3.74908 17.9593 3.33002 17.9593 2.81158C17.9593 2.29221 18.3706 1.87408 18.8794 1.87408L28.9973 1.87408C29.5043 1.87408 29.9174 2.29221 29.9174 2.81158Z"
			fill="black" />
		<path
			d="M29.9266 46.8722C29.9266 47.3906 29.5153 47.8097 29.0065 47.8097L18.8794 47.8097C18.3706 47.8097 17.9593 47.3906 17.9593 46.8722C17.9593 46.3538 18.3706 45.9347 18.8794 45.9347L29.0083 45.9347C29.5162 45.9347 29.9266 46.3538 29.9266 46.8722Z"
			fill="black" />
		<path
			d="M57.5069 13.1287L57.5069 57.1884C57.5069 57.5672 57.2824 57.9103 56.9392 58.0547C56.5941 58.2 56.1985 58.1194 55.9362 57.8512L45.8073 47.535C45.6334 47.3587 45.5377 47.1215 45.5377 46.8722L45.5377 2.81248C45.5377 2.43373 45.7604 2.09061 46.1054 1.94623C46.4487 1.80092 46.8443 1.88155 47.1084 2.14967L57.2373 12.4659C57.4103 12.6412 57.5069 12.8794 57.5069 13.1287ZM55.6666 54.9253L55.6666 13.5169L47.378 5.07561L47.378 46.484L55.6666 54.9253Z"
			fill="black" />
		<path
			d="M57.5032 46.8722C57.5032 47.3906 57.0919 47.8097 56.5831 47.8097L46.4579 47.8097C45.949 47.8097 45.5377 47.3906 45.5377 46.8722C45.5377 46.3538 45.949 45.9347 46.4579 45.9347L56.5831 45.9347C57.0919 45.9347 57.5032 46.3538 57.5032 46.8722Z"
			fill="black" />
		<path
			d="M29.9303 30C29.9303 30.5184 29.519 30.9375 29.0102 30.9375L2.30222 30.9375C1.79338 30.9375 1.38208 30.5184 1.38208 30C1.38208 29.4816 1.79338 29.0625 2.30222 29.0625L29.0102 29.0625C29.5199 29.0625 29.9303 29.4816 29.9303 30Z"
			fill="black" />
		<path fill-rule="evenodd" clip-rule="evenodd"
			d="M12.0409 24.3741L11.7714 24.6487C11.4116 25.0162 11.4116 25.6069 11.7714 25.9744C12.1311 26.3419 12.7127 26.3419 13.0724 25.9744L14.891 24.1215C15.0704 23.9505 15.1823 23.7071 15.1823 23.4366C15.1823 23.1636 15.0687 22.9186 14.887 22.7476L13.0724 20.8987C12.7127 20.5312 12.1311 20.5312 11.7714 20.8987C11.4116 21.2662 11.4116 21.8569 11.7714 22.2244L12.041 22.4991L5.98093 22.4991C5.47209 22.4991 5.06079 22.9172 5.06079 23.4366C5.06079 23.955 5.47209 24.3741 5.98093 24.3741L12.0409 24.3741Z"
			fill="#A07052" />
		<path fill-rule="evenodd" clip-rule="evenodd"
			d="M12.0409 37.5121L11.7714 37.7868C11.4116 38.1533 11.4116 38.7458 11.7714 39.1124C12.1311 39.479 12.7127 39.479 13.0724 39.1124L14.8906 37.2599C15.0702 37.0889 15.1823 36.8453 15.1823 36.5746C15.1823 36.3047 15.0708 36.0618 14.8922 35.8909L13.0724 34.0368C12.7127 33.6702 12.1311 33.6702 11.7714 34.0368C11.4116 34.4033 11.4116 34.9958 11.7714 35.3624L12.041 35.6371L5.98093 35.6371C5.47209 35.6371 5.06079 36.0562 5.06079 36.5746C5.06079 37.0931 5.47209 37.5121 5.98093 37.5121L12.0409 37.5121Z"
			fill="#A07052" />
	</g>
</svg>