<svg width="60" height="60" viewBox="0 0 60 60" fill="none" xmlns="http://www.w3.org/2000/svg">
	<g>
		<path
			d="M52.035 47.6802C51.8172 47.4622 51.5148 47.3369 51.2067 47.3369C50.8987 47.3369 50.5963 47.4622 50.3785 47.6802C50.1606 47.898 50.0352 48.2004 50.0352 48.5084C50.0352 48.8165 50.1606 49.1189 50.3785 49.3366C50.5963 49.5545 50.8987 49.68 51.2067 49.68C51.5148 49.68 51.8172 49.5546 52.035 49.3366C52.2542 49.1188 52.3783 48.8165 52.3783 48.5084C52.3783 48.2004 52.2542 47.898 52.035 47.6802Z"
			fill="black" />
		<path
			d="M22.677 51.0858C20.2223 51.0858 18.2251 53.0829 18.2251 55.5378C18.2251 57.9925 20.2222 59.9897 22.677 59.9897C25.1318 59.9897 27.129 57.9926 27.129 55.5378C27.129 53.0829 25.1318 51.0858 22.677 51.0858ZM22.677 57.6465C21.5143 57.6465 20.5682 56.7005 20.5682 55.5378C20.5682 54.375 21.5143 53.429 22.677 53.429C23.8398 53.429 24.7858 54.375 24.7858 55.5378C24.7858 56.7005 23.8398 57.6465 22.677 57.6465Z"
			fill="black" />
		<path
			d="M44.1659 51.0858C41.7112 51.0858 39.7139 53.0829 39.7139 55.5378C39.7139 57.9925 41.711 59.9897 44.1659 59.9897C46.6206 59.9897 48.6178 57.9926 48.6178 55.5378C48.6178 53.0829 46.6207 51.0858 44.1659 51.0858ZM44.1659 57.6465C43.0032 57.6465 42.0571 56.7005 42.0571 55.5378C42.0571 54.375 43.0032 53.429 44.1659 53.429C45.3286 53.429 46.2747 54.375 46.2747 55.5378C46.2747 56.7005 45.3289 57.6465 44.1659 57.6465Z"
			fill="black" />
		<path
			d="M54.776 30.995C54.1411 30.8725 53.5263 31.2883 53.404 31.9238L51.7013 40.7634C51.5952 41.3138 51.1113 41.7133 50.5508 41.7133H16.7428L12.1544 21.7578H24.202C24.8491 21.7578 25.3735 21.2333 25.3735 20.5863C25.3735 19.9393 24.849 19.4148 24.202 19.4148H11.6156L10.366 13.9801C9.99701 12.3744 8.58842 11.2529 6.94077 11.2529H1.17152C0.52453 11.2528 0 11.7773 0 12.4245C0 13.0716 0.52453 13.596 1.17152 13.596H6.94088C7.49014 13.596 7.95959 13.9697 8.08264 14.505L15.9614 48.7709C16.0837 49.3029 16.5573 49.6799 17.1031 49.6799H46.9856C47.6328 49.6799 48.1572 49.1553 48.1572 48.5084C48.1572 47.8614 47.6326 47.3369 46.9856 47.3369H18.0358L17.2816 44.0566H50.5508C52.2325 44.0566 53.6841 42.8581 54.002 41.2068L55.7047 32.3673C55.8272 31.7316 55.4114 31.1175 54.776 30.995Z"
			fill="black" />
		<path
			d="M59.5468 15.8332C60.291 14.6241 60.1043 13.0835 59.0927 12.0873L57.9227 10.9348C57.7794 10.7936 57.7055 10.5976 57.7196 10.3969L57.8368 8.75064C57.9382 7.32776 57.0552 6.04655 55.6894 5.63487L54.14 5.16776C53.9462 5.10928 53.7889 4.96924 53.7083 4.78362L53.0598 3.28749C52.4978 1.99093 51.0833 1.24761 49.6968 1.51948L48.1247 1.82804C47.9248 1.86706 47.7197 1.81632 47.5614 1.68847L46.3099 0.67808C45.2073 -0.212075 43.6065 -0.212309 42.5038 0.67808L41.2524 1.68847C41.0939 1.81632 40.8889 1.8673 40.6889 1.82792L39.1167 1.51937C37.7301 1.24714 36.3157 1.99069 35.7538 3.28702L35.1051 4.7835C35.0246 4.96924 34.8673 5.10917 34.6735 5.16764L33.1244 5.63463C31.7587 6.04643 30.8757 7.32764 30.977 8.75041L31.0942 10.3968C31.1085 10.5974 31.0345 10.7933 30.8913 10.9345L29.7213 12.0871C28.7097 13.0834 28.523 14.6238 29.2672 15.833L30.1322 17.2389C30.2375 17.41 30.2626 17.6176 30.2011 17.8089L29.6949 19.383C29.2595 20.7369 29.8096 22.1896 31.0324 22.9154L32.4347 23.748C32.6082 23.8509 32.727 24.024 32.7609 24.2229L33.0367 25.8417C33.2772 27.2525 34.4436 28.2873 35.8728 28.3583L37.4787 28.4381C37.6816 28.4482 37.8684 28.5467 37.9912 28.7082L38.9705 29.9968C39.5559 30.7667 40.4658 31.1897 41.3928 31.1897C41.8232 31.1897 42.2574 31.0985 42.6642 30.9085L44.1162 30.2306C44.3008 30.1444 44.5124 30.1444 44.6971 30.2306L46.1488 30.9085C47.4322 31.5077 48.9857 31.1243 49.8427 29.9965L50.8215 28.7083C50.9445 28.5466 51.1313 28.4482 51.3341 28.4381L52.9404 28.3582C54.3697 28.2872 55.536 27.2524 55.7764 25.8416L56.0523 24.2228C56.0862 24.0239 56.2051 23.8509 56.3784 23.7479L57.7808 22.9154C59.0035 22.1896 59.5536 20.7369 59.1184 19.383L58.6121 17.8089C58.5506 17.6176 58.5757 17.41 58.6809 17.239L59.5468 15.8332ZM57.5512 14.6052L56.686 16.0112C56.2217 16.7659 56.1109 17.6827 56.3822 18.5262L56.8884 20.1003C56.9871 20.4071 56.8624 20.7363 56.5855 20.9007L55.1832 21.7332C54.4178 22.1877 53.893 22.9515 53.7432 23.8291L53.4674 25.4478C53.4129 25.7674 53.1487 26.0019 52.8247 26.0181L51.2183 26.098C50.3232 26.1425 49.499 26.5772 48.9566 27.2907L47.9777 28.5788C47.7834 28.8342 47.4315 28.9212 47.1407 28.7855L45.689 28.1075C44.8743 27.727 43.9397 27.7271 43.1251 28.1075L41.6733 28.7855C41.3826 28.9214 41.0305 28.8343 40.8364 28.5788L39.857 27.2903C39.3148 26.5769 38.4905 26.1423 37.5954 26.0978L35.9895 26.018C35.6657 26.0019 35.4013 25.7674 35.3468 25.4477L35.071 23.8289C34.9213 22.9514 34.3966 22.1875 33.6311 21.7331L32.2287 20.9006C31.9517 20.7361 31.8271 20.407 31.9258 20.1002L32.432 18.5261C32.7032 17.6824 32.5926 16.7658 32.1282 16.011L31.263 14.605C31.0943 14.3311 31.1367 13.982 31.3659 13.7563L32.536 12.6036C33.1683 11.9807 33.4948 11.1156 33.4318 10.2303L33.3146 8.58389C33.2916 8.26162 33.4918 7.97123 33.801 7.87795L35.3501 7.41096C36.2053 7.15315 36.8997 6.5351 37.2551 5.71561L37.9039 4.21913C38.0137 3.96612 38.2667 3.80593 38.5357 3.80593C38.579 3.80593 38.6225 3.81014 38.6659 3.81858L40.238 4.12702C41.1194 4.30034 42.0256 4.07569 42.7245 3.51143L43.9759 2.50105C44.2259 2.29925 44.5886 2.29937 44.8383 2.50105L46.0897 3.51143C46.7885 4.07557 47.6945 4.29987 48.5762 4.12714L50.1482 3.8187C50.4626 3.75659 50.7829 3.92557 50.91 4.21925L51.5585 5.71538C51.9138 6.53522 52.6083 7.15326 53.4637 7.41108L55.0131 7.87818C55.3225 7.97147 55.5226 8.26174 55.4996 8.58412L55.3825 10.2304C55.3194 11.1157 55.6459 11.9808 56.2782 12.6039L57.4482 13.7564C57.6775 13.9821 57.7198 14.3311 57.5512 14.6052Z"
			fill="black" />
		<path
			d="M47.1171 10.2924C46.5536 9.97419 45.8391 10.1731 45.5211 10.7366L40.0877 20.3612C39.7696 20.9248 39.9684 21.6393 40.5319 21.9573C40.714 22.0601 40.9116 22.1089 41.1068 22.1089C41.5157 22.1089 41.9127 21.8945 42.1281 21.513L47.5615 11.8884C47.8794 11.3249 47.6805 10.6104 47.1171 10.2924Z"
			fill="#A07052" />
		<path
			d="M47.938 16.4468C46.2579 16.4468 44.891 17.8137 44.891 19.4938C44.891 21.1739 46.2579 22.5408 47.938 22.5408C49.6181 22.5408 50.985 21.1739 50.985 19.4938C50.985 17.8137 49.618 16.4468 47.938 16.4468ZM47.938 20.1977C47.5499 20.1977 47.2342 19.882 47.2342 19.4939C47.2342 19.1058 47.5499 18.7901 47.938 18.7901C48.3262 18.7901 48.6419 19.1058 48.6419 19.4939C48.6419 19.882 48.3262 20.1977 47.938 20.1977Z"
			fill="#A07052" />
		<path
			d="M40.8762 8.65839C39.1961 8.65839 37.8292 10.0253 37.8292 11.7054C37.8292 13.3855 39.1961 14.7524 40.8762 14.7524C42.5563 14.7524 43.9232 13.3855 43.9232 11.7054C43.9232 10.0253 42.5563 8.65839 40.8762 8.65839ZM40.8761 12.4093C40.488 12.4093 40.1723 12.0936 40.1723 11.7055C40.1723 11.3174 40.488 11.0017 40.8761 11.0017C41.2642 11.0017 41.5799 11.3174 41.5799 11.7055C41.5799 12.0935 41.2642 12.4093 40.8761 12.4093Z"
			fill="#A07052" />
	</g>
</svg>