<svg width="17" height="17" viewBox="0 0 17 17" fill="none" xmlns="http://www.w3.org/2000/svg">
	<g>
		<path fill-rule="evenodd" clip-rule="evenodd"
			d="M16.7376 1.68882C16.5298 1.43487 16.2188 1.29492 15.8617 1.29492C15.6674 1.29492 15.4618 1.33591 15.2504 1.41658L0.860161 6.90973C0.0964924 7.20117 -0.00635909 7.63851 0.000255562 7.8734C0.00687021 8.10815 0.134365 8.53901 0.913338 8.78674L0.922677 8.78962L0.927346 8.79102L2.94547 9.36844L12.7741 4.34713C13.0189 4.22184 13.3191 4.31912 13.4442 4.56412C13.5425 4.75659 13.5031 4.98279 13.363 5.13168L13.3634 5.13207L7.89868 10.9386L7.74278 11.5703L9.69423 13.1418L12.3985 15.3193L12.4056 15.3249C12.7031 15.5557 13.0282 15.6777 13.3455 15.6778C13.9657 15.6778 14.4595 15.2188 14.6034 14.5085L16.9612 2.86623C17.0557 2.39905 16.9763 1.98077 16.7376 1.68882ZM6.96318 10.5732C6.98302 10.4927 7.02297 10.4159 7.0838 10.3512L10.6696 6.54102L4.01562 9.94044L5.5265 14.2614C5.61262 14.5076 5.74076 14.7172 5.89925 14.8812L6.96292 10.5731L6.96318 10.5732ZM7.84782 14.8418C7.53862 15.1265 7.18571 15.278 6.82657 15.281L7.47935 12.6372L8.95325 13.824L7.84782 14.8418Z"/>
	</g>
</svg>