<svg width="60" height="60" viewBox="0 0 60 60" fill="none" xmlns="http://www.w3.org/2000/svg">
	<g>
		<path
			d="M57.5299 25.0677L56.7581 24.4905C55.7968 23.7709 55.4558 22.4974 55.9282 21.3937L56.3082 20.508C57.0799 18.7058 56.9605 16.6985 55.9804 15.0011C54.9999 13.3033 53.3217 12.1959 51.3749 11.9639L50.4182 11.8494C49.2257 11.7071 48.2932 10.7746 48.1509 9.5826L48.0369 8.62542C47.8043 6.67902 46.697 5.00042 44.9996 4.02035C43.3018 3.03983 41.2945 2.92036 39.4928 3.6926L38.6066 4.07208C37.5029 4.54495 36.2294 4.20346 35.5098 3.24216L34.9326 2.47084C33.758 0.901177 31.9604 0.0012207 29.9998 0.0012207C28.0392 0.0012207 26.2416 0.901177 25.0669 2.47084L24.4893 3.24216C23.7697 4.20392 22.4966 4.54495 21.3925 4.07208L20.5067 3.6926C18.7045 2.92081 16.6973 3.03983 14.9999 4.02035C13.3021 5.00042 12.1947 6.67902 11.9626 8.62542L11.8482 9.58214C11.7058 10.7746 10.7734 11.7071 9.58092 11.8494L8.6242 11.9639C6.6778 12.1959 4.9992 13.3033 4.01913 15.0011C3.03861 16.6985 2.91959 18.7058 3.69138 20.508L4.07086 21.3937C4.54373 22.4974 4.20224 23.7709 3.24094 24.4905L2.46962 25.0677C0.900414 26.2423 0 28.0404 0 30.0005C0 31.9611 0.900414 33.7592 2.46962 34.9338L3.2414 35.511C4.2027 36.2306 4.54373 37.5041 4.07132 38.6078L3.69138 39.4936C2.91959 41.2958 3.03907 43.303 4.01913 45.0004C4.99966 46.6982 6.6778 47.8056 8.62466 48.0377L9.58138 48.1521C10.7738 48.2945 11.7063 49.2269 11.8487 50.4189L11.9626 51.3761C12.1952 53.3225 13.3025 55.0011 14.9999 55.9812C16.6977 56.9612 18.705 57.0807 20.5067 56.3089L21.393 55.9294C22.4966 55.4566 23.7701 55.7981 24.4897 56.7594L25.0669 57.5307C26.2416 59.1003 28.0396 60.0008 30.0002 60.0008C31.9604 60.0008 33.7584 59.1003 34.933 57.5307L35.5103 56.7594C36.2299 55.7981 37.5029 55.4566 38.6075 55.9299L39.4933 56.3089C41.295 57.0807 43.3023 56.9617 45.0001 55.9816C46.6975 55.0011 47.8048 53.3225 48.0373 51.3761L48.1513 50.4194C48.2937 49.2269 49.2261 48.2945 50.4186 48.1521L51.3753 48.0381C53.3217 47.8056 55.0008 46.6982 55.9809 45.0009C56.9609 43.303 57.0804 41.2958 56.3082 39.4936L55.9291 38.6082C55.4563 37.5041 55.7973 36.2306 56.759 35.511L57.5304 34.9338C59.1 33.7592 60 31.9611 60 30.001C59.9995 28.0404 59.0991 26.2423 57.5299 25.0677ZM56.1255 33.0574L55.3542 33.6347C53.5236 35.0043 52.8736 37.4291 53.7745 39.5311L54.1535 40.4164C54.6318 41.5329 54.5577 42.7766 53.9507 43.8285C53.3432 44.8809 52.3032 45.5667 51.097 45.7109L50.1403 45.8248C47.8698 46.0958 46.0951 47.871 45.8241 50.1415L45.7096 51.0982C45.5654 52.3044 44.8797 53.3445 43.8278 53.9519C42.7758 54.5589 41.5321 54.6331 40.4156 54.1547L39.5299 53.7752C37.4278 52.8748 35.0035 53.5248 33.6335 55.3554L33.0562 56.1267C32.3284 57.099 31.2142 57.657 29.9998 57.657C28.7849 57.657 27.6707 57.099 26.9428 56.1267L26.3656 55.3554C25.4084 54.076 23.9363 53.3733 22.4193 53.3733C21.7651 53.3733 21.1027 53.5042 20.4697 53.7752L19.5839 54.1547C18.467 54.6331 17.2237 54.5589 16.1713 53.9519C15.1194 53.3445 14.4336 52.3044 14.2894 51.0982L14.1755 50.1415C13.904 47.871 12.1293 46.0963 9.85878 45.8253L8.90206 45.7109C7.69586 45.5667 6.65583 44.8809 6.04838 43.829C5.44139 42.7771 5.36724 41.5333 5.8456 40.4169L6.22508 39.5311C7.12549 37.4295 6.47547 35.0048 4.64535 33.6347L3.87357 33.0574C2.90128 32.3296 2.34373 31.2154 2.34373 30.0005C2.34373 28.7861 2.90128 27.6719 3.87402 26.9441L4.64535 26.3668C6.47593 24.9968 7.12595 22.572 6.22508 20.4704L5.84605 19.5847C5.36769 18.4682 5.44185 17.2244 6.04884 16.1725C6.65629 15.1206 7.69632 14.4349 8.90252 14.2907L9.85924 14.1762C12.1297 13.9052 13.9045 12.1305 14.1755 9.86L14.2899 8.90328C14.4341 7.69708 15.1198 6.65705 16.1717 6.0496C17.2237 5.44216 18.4674 5.36846 19.5839 5.84682L20.4697 6.22584C22.5712 7.12626 24.996 6.4767 26.3661 4.64611L26.9433 3.87479C27.6711 2.9025 28.7853 2.34449 29.9998 2.34449C31.2142 2.34449 32.3284 2.9025 33.0562 3.87479L33.6339 4.64657C35.0035 6.47715 37.4288 7.12671 39.5299 6.2263L40.4156 5.84682C41.5321 5.36846 42.7758 5.44262 43.8278 6.0496C44.8797 6.65705 45.5659 7.69708 45.7096 8.90328L45.8241 9.86C46.0951 12.1305 47.8703 13.9052 50.1403 14.1762L51.097 14.2907C52.3032 14.4349 53.3432 15.1206 53.9507 16.1725C54.5581 17.2244 54.6318 18.4682 54.1539 19.5847L53.7745 20.4704C52.874 22.5725 53.5236 24.9968 55.3542 26.3668L56.1255 26.9441C57.0982 27.6719 57.6558 28.7861 57.6558 30.001C57.6558 31.2154 57.0982 32.3296 56.1255 33.0574Z"
			fill="black" />
		<path
			d="M30 6.81146C26.4647 6.81146 23.0699 7.58691 19.9105 9.11628C19.3278 9.39826 19.0842 10.0991 19.3657 10.6814C19.6477 11.2641 20.349 11.5076 20.9313 11.2256C23.7699 9.85191 26.8208 9.15519 30 9.15519C41.4939 9.15519 50.845 18.5063 50.845 30.0007C50.845 41.4946 41.4939 50.8457 30 50.8457C18.5056 50.8457 9.15449 41.4946 9.15449 30.0007C9.15449 25.2926 10.6857 20.8505 13.5829 17.1541C13.982 16.6446 13.8928 15.9081 13.3833 15.5084C12.8738 15.1093 12.1373 15.199 11.7381 15.708C8.515 19.8215 6.81122 24.7634 6.81122 30.0007C6.81122 42.7868 17.2138 53.1894 30 53.1894C42.7861 53.1894 53.1887 42.7868 53.1887 30.0007C53.1887 17.2141 42.7861 6.81146 30 6.81146Z"
			fill="black" />
		<path
			d="M12.8662 24.0338L11.9736 25.1718C11.5739 25.6813 11.6632 26.4178 12.1722 26.817C12.6817 27.2166 13.4183 27.1278 13.8174 26.6183L14.3077 25.994V33.7444H13.5231C12.8758 33.7444 12.3512 34.269 12.3512 34.9162C12.3512 35.5635 12.8758 36.0881 13.5231 36.0881H17.3958C18.0426 36.0881 18.5677 35.5635 18.5677 34.9162C18.5677 34.269 18.0426 33.7444 17.3958 33.7444H16.6515V24.7571C16.6515 24.1098 16.1264 23.5852 15.4796 23.5852H13.7881C13.4283 23.5852 13.0882 23.7505 12.8662 24.0338Z"
			fill="#A07052" />
		<path
			d="M22.2832 36.0875H22.892C24.8274 36.0875 26.4017 34.5133 26.4017 32.5779V26.8975C26.4017 24.9621 24.827 23.3875 22.892 23.3875H22.2832C20.3477 23.3875 18.7735 24.9621 18.7735 26.8975V32.5779C18.7735 34.5133 20.3477 36.0875 22.2832 36.0875ZM21.1172 26.8975C21.1172 26.2544 21.6405 25.7312 22.2832 25.7312H22.892C23.5347 25.7312 24.0579 26.2544 24.0579 26.8975V32.5779C24.0579 33.2206 23.5347 33.7438 22.892 33.7438H22.2832C21.6405 33.7438 21.1172 33.2206 21.1172 32.5779V26.8975Z"
			fill="#A07052" />
		<path
			d="M31.7268 36.0875C33.6623 36.0875 35.2365 34.5133 35.2365 32.5779V26.8975C35.2365 24.9621 33.6618 23.3875 31.7268 23.3875H31.118C29.1826 23.3875 27.6083 24.9621 27.6083 26.8975V32.5779C27.6083 34.5133 29.1826 36.0875 31.118 36.0875H31.7268ZM29.9521 32.5779V26.8975C29.9521 26.2544 30.4753 25.7312 31.118 25.7312H31.7268C32.3695 25.7312 32.8928 26.2544 32.8928 26.8975V32.5779C32.8928 33.2206 32.3695 33.7438 31.7268 33.7438H31.118C30.4753 33.7438 29.9521 33.221 29.9521 32.5779Z"
			fill="#A07052" />
		<path
			d="M47.2028 23.2464C46.6796 22.8661 45.9467 22.9819 45.5658 23.5051L38.1198 33.7447C37.739 34.2683 37.8548 35.0012 38.3785 35.3816C38.5863 35.5327 38.8275 35.6059 39.0665 35.6059C39.4286 35.6059 39.7861 35.4384 40.0154 35.123L47.4614 24.8834C47.8423 24.3602 47.726 23.6273 47.2028 23.2464Z"
			fill="#A07052" />
		<path
			d="M19.4447 18.7828C19.718 18.7828 19.9926 18.6875 20.2146 18.4939C22.9237 16.1282 26.3986 14.8254 29.9998 14.8254C33.3689 14.8254 36.5462 15.9231 39.1885 17.9995C39.6975 18.3996 40.434 18.3113 40.8341 17.8022C41.2337 17.2937 41.1454 16.5567 40.6368 16.157C37.5771 13.7524 33.899 12.4817 29.9998 12.4817C25.8318 12.4817 21.809 13.99 18.6733 16.7283C18.1858 17.154 18.1355 17.8942 18.5612 18.3818C18.7928 18.6473 19.1178 18.7828 19.4447 18.7828Z"
			fill="black" />
		<path
			d="M19.2288 43.2627C22.2875 45.6668 25.9661 46.9376 29.8653 46.9376C32.5706 46.9376 35.1606 46.3279 37.5639 45.1258C38.1425 44.8365 38.3769 44.1324 38.0876 43.5534C37.7978 42.9748 37.0942 42.7404 36.5152 43.0297C34.4406 44.0679 32.2031 44.5939 29.8653 44.5939C26.4966 44.5939 23.3189 43.4966 20.6767 41.4197C20.1681 41.0201 19.4311 41.1085 19.0315 41.617C18.6314 42.1261 18.7197 42.8626 19.2288 43.2627Z"
			fill="black" />
		<path
			d="M41.5079 41.2585C41.2488 40.8703 40.7635 40.6689 40.3053 40.7604C39.8192 40.8579 39.4365 41.2644 39.3719 41.7565C39.3088 42.2344 39.5569 42.7155 39.9817 42.9426C40.4083 43.171 40.9448 43.1083 41.3087 42.7892C41.7464 42.4042 41.8242 41.7423 41.5079 41.2585Z"
			fill="black" />
		<path
			d="M39.5183 23.0212C37.9976 23.0212 36.7603 24.2581 36.7603 25.7788C36.7603 27.2995 37.9976 28.5368 39.5183 28.5368C41.0385 28.5368 42.2759 27.2995 42.2759 25.7788C42.2759 24.2581 41.0385 23.0212 39.5183 23.0212ZM39.5183 26.1931C39.2899 26.1931 39.104 26.0072 39.104 25.7788C39.104 25.5504 39.2899 25.3645 39.5183 25.3645C39.7467 25.3645 39.9321 25.5504 39.9321 25.7788C39.9321 26.0072 39.7467 26.1931 39.5183 26.1931Z"
			fill="#A07052" />
		<path
			d="M43.2645 32.9216C43.2645 34.4423 44.5018 35.6796 46.022 35.6796C47.5427 35.6796 48.7801 34.4423 48.7801 32.9216C48.7801 31.4009 47.5427 30.1636 46.022 30.1636C44.5018 30.1636 43.2645 31.4009 43.2645 32.9216ZM46.4363 32.9216C46.4363 33.15 46.2509 33.3359 46.0225 33.3359C45.7941 33.3359 45.6082 33.15 45.6082 32.9216C45.6082 32.6932 45.7941 32.5073 46.0225 32.5073C46.2509 32.5073 46.4363 32.6932 46.4363 32.9216Z"
			fill="#A07052" />
		<path
			d="M15.1722 13.2949C15.3608 13.7477 15.8213 14.0397 16.3111 14.0168C16.7945 13.9939 17.2193 13.6634 17.3685 13.2048C17.5191 12.7415 17.3552 12.2123 16.967 11.9171C16.5711 11.6159 16.0181 11.5985 15.6034 11.8727C15.141 12.178 14.9634 12.7854 15.1722 13.2949Z"
			fill="black" />
	</g>
</svg>